<?xml version="1.0" encoding="UTF-8"?>
<!DOCTYPE svg PUBLIC "-//W3C//DTD SVG 1.1//EN" "http://www.w3.org/Graphics/SVG/1.1/DTD/svg11.dtd">
<svg xmlns="http://www.w3.org/2000/svg" version="1.1" width="1000px" height="250px" style="shape-rendering:geometricPrecision; text-rendering:geometricPrecision; image-rendering:optimizeQuality; fill-rule:evenodd; clip-rule:evenodd" xmlns:xlink="http://www.w3.org/1999/xlink">
<g><path style="opacity:0.956" fill="#fefffe" d="M 78.5,12.5 C 91.3253,11.2733 101.825,15.6066 110,25.5C 112.333,28.8333 114.667,32.1667 117,35.5C 116.417,71.4864 116.417,107.486 117,143.5C 126.414,134.091 135.08,124.091 143,113.5C 149.378,101.796 156.545,90.6298 164.5,80C 172.179,76.1105 178.679,77.6105 184,84.5C 192.642,100.297 189.475,113.13 174.5,123C 164.515,127.322 155.182,132.655 146.5,139C 148.754,140.377 150.92,141.877 153,143.5C 163.744,173.652 181.41,198.985 206,219.5C 208.155,222.54 207.988,225.373 205.5,228C 202.692,228.993 199.859,229.827 197,230.5C 184.641,228.703 172.475,225.869 160.5,222C 155.384,217.271 152.217,211.438 151,204.5C 143.024,187.207 132.69,171.54 120,157.5C 118.171,159.156 116.837,161.156 116,163.5C 113.162,192.018 105.828,219.352 94,245.5C 93,246.833 92,246.833 91,245.5C 91,238.992 91.5,232.492 92.5,226C 90.1317,208.887 88.2984,191.721 87,174.5C 86.45,139.124 85.6167,103.791 84.5,68.5C 86.5673,56.5331 85.4007,44.8664 81,33.5C 78.1054,28.6283 75.2721,23.795 72.5,19C 73.3262,15.6763 75.3262,13.5097 78.5,12.5 Z"/></g>
<g><path style="opacity:0.958" fill="#fefffe" d="M 372.5,12.5 C 381.164,11.4996 389.164,13.3329 396.5,18C 402.078,22.9071 406.911,28.4071 411,34.5C 410.457,70.8239 410.457,107.157 411,143.5C 419.704,134.464 428.038,125.131 436,115.5C 442.333,105.167 448.667,94.8333 455,84.5C 463.412,75.0134 471.412,75.3467 479,85.5C 486.789,100.177 483.955,112.343 470.5,122C 464.779,125.527 458.779,128.527 452.5,131C 448.553,133.28 444.887,135.947 441.5,139C 443.96,140.458 446.127,142.291 448,144.5C 453.385,161.272 461.385,176.606 472,190.5C 481.303,200.804 490.97,210.804 501,220.5C 503.105,223.011 502.938,225.344 500.5,227.5C 497.428,228.87 494.261,229.87 491,230.5C 478.643,228.694 466.477,225.86 454.5,222C 453.333,220.833 452.167,219.667 451,218.5C 442.947,195.363 430.614,175.029 414,157.5C 413.385,159.116 412.385,160.449 411,161.5C 407.915,189.504 400.915,216.504 390,242.5C 389.363,244.303 388.197,245.636 386.5,246.5C 385.474,239.684 385.474,232.85 386.5,226C 383.719,205.918 381.886,185.752 381,165.5C 380.945,125.634 380.278,85.6339 379,45.5C 378.587,42.7679 377.92,40.1013 377,37.5C 373.991,30.8078 370.491,24.4745 366.5,18.5C 366.667,17.8333 366.833,17.1667 367,16.5C 368.812,15.0229 370.645,13.6896 372.5,12.5 Z"/></g>
<g><path style="opacity:0.944" fill="#fefffe" d="M 336.5,22.5 C 354.437,25.6972 360.604,36.0305 355,53.5C 344.887,65.5142 333.887,66.5142 322,56.5C 316.463,48.0451 316.129,39.3784 321,30.5C 325.379,26.0619 330.546,23.3952 336.5,22.5 Z"/></g>
<g><path style="opacity:0.954" fill="#fefffe" d="M 624.5,39.5 C 642.275,41.4707 657.108,49.1374 669,62.5C 669.463,75.912 668.629,89.2453 666.5,102.5C 674.868,101.544 682.535,98.7108 689.5,94C 697.985,92.7456 705.152,95.2456 711,101.5C 715.532,113.769 711.532,121.769 699,125.5C 692.422,122.474 685.588,120.14 678.5,118.5C 674.154,119.168 669.82,119.835 665.5,120.5C 665.462,141.846 665.296,163.179 665,184.5C 665.007,193.836 669.507,199.669 678.5,202C 687.929,202.679 697.262,204.012 706.5,206C 709.562,207.061 712.062,208.894 714,211.5C 714.047,198.457 720.547,192.957 733.5,195C 752.167,200.279 771.167,202.612 790.5,202C 800.716,187.667 797.049,179 779.5,176C 764.13,173.549 748.796,170.883 733.5,168C 730.379,167.274 727.713,165.774 725.5,163.5C 716.551,147.594 714.051,130.594 718,112.5C 722.001,102.818 729.335,97.8181 740,97.5C 764.975,102.252 789.975,102.586 815,98.5C 823.357,101.919 824.69,107.252 819,114.5C 814.833,121.333 809.333,126.833 802.5,131C 788.868,128.512 775.201,125.846 761.5,123C 755.911,122.448 750.411,121.615 745,120.5C 740.99,126.229 739.656,132.562 741,139.5C 741.465,140.931 742.299,142.097 743.5,143C 749.621,145.425 755.954,147.092 762.5,148C 779.903,149.97 797.237,152.304 814.5,155C 820.056,169.789 820.889,184.956 817,200.5C 811.389,216.407 800.222,225.907 783.5,229C 773.315,229.63 763.148,230.463 753,231.5C 742.574,230.691 732.741,227.858 723.5,223C 721.333,220.833 719.167,218.667 717,216.5C 716.813,220.039 715.646,223.205 713.5,226C 705.689,230.022 697.356,231.855 688.5,231.5C 674.399,232.187 661.899,228.187 651,219.5C 646.02,212.876 642.687,205.543 641,197.5C 640.833,174.16 640.333,150.826 639.5,127.5C 636.125,128.903 632.791,130.403 629.5,132C 617.969,130.853 608.469,125.686 601,116.5C 598.365,112.649 598.031,108.649 600,104.5C 601.062,103.903 602.228,103.57 603.5,103.5C 615.44,105.164 627.44,105.831 639.5,105.5C 641.614,83.6702 635.114,65.0035 620,49.5C 618.315,44.4871 619.815,41.1537 624.5,39.5 Z"/></g>
<g><path style="opacity:0.954" fill="#fefffe" d="M 326.5,92.5 C 334.657,92.4958 341.157,95.8291 346,102.5C 350.911,108.655 355.577,114.989 360,121.5C 360.658,123.8 361.158,126.133 361.5,128.5C 358.362,142.02 356.196,155.686 355,169.5C 354.542,185.241 355.209,200.907 357,216.5C 353.002,229.801 344.836,233.301 332.5,227C 327.155,221.651 323.489,215.318 321.5,208C 326.113,191.771 329.113,175.271 330.5,158.5C 329.342,139.22 326.342,120.22 321.5,101.5C 321.913,97.6611 323.58,94.6611 326.5,92.5 Z"/></g>
<g><path style="opacity:0.959" fill="#fefffe" d="M 914.5,94.5 C 926.929,94.7612 933.762,101.094 935,113.5C 934.031,134.81 933.198,156.143 932.5,177.5C 932.378,192.908 933.378,208.241 935.5,223.5C 934.893,230.894 930.893,233.727 923.5,232C 920.007,231.058 916.674,229.725 913.5,228C 909.944,222.972 905.111,220.472 899,220.5C 891.181,221.993 883.347,223.493 875.5,225C 846.819,231.616 830.985,220.449 828,191.5C 825.794,166.53 823.96,141.53 822.5,116.5C 821.406,107.317 825.406,102.65 834.5,102.5C 848.957,104.977 855.624,113.644 854.5,128.5C 853.408,145.154 853.241,161.821 854,178.5C 854.723,198.564 864.889,206.731 884.5,203C 893.93,201.713 900.763,196.879 905,188.5C 904.408,160.812 903.408,133.145 902,105.5C 903.895,99.0972 908.062,95.4305 914.5,94.5 Z"/></g>
<g><path style="opacity:0.958" fill="#fefffe" d="M 212.5,95.5 C 237.5,100.333 262.5,105.167 287.5,110C 299.916,115.995 307.082,125.828 309,139.5C 309.71,157.675 309.543,175.842 308.5,194C 308.811,203.251 309.811,212.418 311.5,221.5C 311.882,226.57 309.548,229.403 304.5,230C 301.167,230.667 297.833,230.667 294.5,230C 290.656,227.485 286.823,224.985 283,222.5C 260.328,232.57 238.161,231.737 216.5,220C 201.926,206.205 197.759,189.705 204,170.5C 210.825,157.482 221.658,149.982 236.5,148C 251.547,146.306 266.214,147.806 280.5,152.5C 280.501,146.484 280.835,140.484 281.5,134.5C 281.518,130.511 280.851,126.678 279.5,123C 278.391,122.362 277.225,121.862 276,121.5C 264.632,123.511 253.465,126.344 242.5,130C 219.758,131.258 208.924,120.424 210,97.5C 210.995,96.9341 211.828,96.2674 212.5,95.5 Z M 245.5,168.5 C 255.315,167.274 264.148,169.607 272,175.5C 280.8,189.731 277.3,199.564 261.5,205C 252.767,206.957 244.1,206.624 235.5,204C 228.527,201.229 225.194,196.062 225.5,188.5C 225.826,182.682 228.159,177.849 232.5,174C 236.741,171.651 241.075,169.818 245.5,168.5 Z"/></g>
<g><path style="opacity:0.957" fill="#fefffe" d="M 546.5,98.5 C 567.578,96.0226 585.078,102.689 599,118.5C 601.254,122.007 603.254,125.673 605,129.5C 615.31,160.087 604.81,177.921 573.5,183C 558.492,185.936 543.492,186.103 528.5,183.5C 527.661,193.205 531.994,199.705 541.5,203C 550.751,205.737 560.084,206.071 569.5,204C 575.467,198.348 582.134,193.682 589.5,190C 603.526,188.362 610.026,194.528 609,208.5C 606.55,213.284 603.05,217.117 598.5,220C 581.467,228.482 563.467,231.482 544.5,229C 526.918,226.409 514.084,217.242 506,201.5C 501.812,193.602 498.812,185.268 497,176.5C 492.611,171.111 488.611,165.444 485,159.5C 484.289,157.101 484.456,154.768 485.5,152.5C 488.974,149.717 492.807,147.717 497,146.5C 503.224,119.774 519.724,103.774 546.5,98.5 Z M 551.5,123.5 C 563.78,121.523 574.28,124.856 583,133.5C 587.284,139.295 587.618,145.295 584,151.5C 578.282,156.855 571.449,159.688 563.5,160C 556.167,160.667 548.833,160.667 541.5,160C 535.773,160.105 531.273,157.939 528,153.5C 528.511,137.816 536.345,127.816 551.5,123.5 Z"/></g>
</svg>
